<svg width="1920" height="96" viewBox="0 0 1920 96" fill="none" xmlns="http://www.w3.org/2000/svg">
<rect width="1920" height="96" fill="#F7ECE1"/>
<g opacity="0.3">
<path d="M312.504 53V51.936L315.962 48.408C316.886 47.484 317.348 46.6907 317.348 46.028C317.348 45.4773 317.18 45.048 316.844 44.74C316.508 44.432 316.097 44.278 315.612 44.278C314.688 44.278 314.016 44.7167 313.596 45.594L312.504 44.95C312.812 44.3153 313.237 43.8347 313.778 43.508C314.329 43.1813 314.935 43.018 315.598 43.018C316.419 43.018 317.133 43.2887 317.74 43.83C318.347 44.3713 318.65 45.0993 318.65 46.014C318.65 47.0033 318.067 48.0813 316.9 49.248L314.394 51.74H318.832V53H312.504ZM326.442 51.796C325.779 52.72 324.851 53.182 323.656 53.182C322.461 53.182 321.533 52.72 320.87 51.796C320.207 50.872 319.876 49.64 319.876 48.1C319.876 46.56 320.207 45.328 320.87 44.404C321.533 43.48 322.461 43.018 323.656 43.018C324.851 43.018 325.779 43.48 326.442 44.404C327.105 45.328 327.436 46.56 327.436 48.1C327.436 49.64 327.105 50.872 326.442 51.796ZM321.822 50.914C322.251 51.5767 322.863 51.908 323.656 51.908C324.449 51.908 325.061 51.5767 325.49 50.914C325.929 50.2513 326.148 49.3133 326.148 48.1C326.148 46.8867 325.929 45.9487 325.49 45.286C325.061 44.614 324.449 44.278 323.656 44.278C322.863 44.278 322.251 44.6093 321.822 45.272C321.393 45.9347 321.178 46.8773 321.178 48.1C321.178 49.3133 321.393 50.2513 321.822 50.914ZM328.391 53V51.936L331.849 48.408C332.773 47.484 333.235 46.6907 333.235 46.028C333.235 45.4773 333.067 45.048 332.731 44.74C332.395 44.432 331.984 44.278 331.499 44.278C330.575 44.278 329.903 44.7167 329.483 45.594L328.391 44.95C328.699 44.3153 329.123 43.8347 329.665 43.508C330.215 43.1813 330.822 43.018 331.485 43.018C332.306 43.018 333.02 43.2887 333.627 43.83C334.233 44.3713 334.537 45.0993 334.537 46.014C334.537 47.0033 333.953 48.0813 332.787 49.248L330.281 51.74H334.719V53H328.391ZM335.774 53V51.936L339.232 48.408C340.156 47.484 340.618 46.6907 340.618 46.028C340.618 45.4773 340.45 45.048 340.114 44.74C339.778 44.432 339.367 44.278 338.882 44.278C337.958 44.278 337.286 44.7167 336.866 45.594L335.774 44.95C336.082 44.3153 336.506 43.8347 337.048 43.508C337.598 43.1813 338.205 43.018 338.868 43.018C339.689 43.018 340.403 43.2887 341.01 43.83C341.616 44.3713 341.92 45.0993 341.92 46.014C341.92 47.0033 341.336 48.0813 340.17 49.248L337.664 51.74H342.102V53H335.774ZM355.336 51.684C354.347 52.6733 353.152 53.168 351.752 53.168C350.352 53.168 349.158 52.6733 348.168 51.684C347.179 50.6947 346.684 49.5 346.684 48.1C346.684 46.7 347.179 45.5053 348.168 44.516C349.158 43.5267 350.352 43.032 351.752 43.032C353.152 43.032 354.347 43.5267 355.336 44.516C356.326 45.5053 356.82 46.7 356.82 48.1C356.82 49.5 356.326 50.6947 355.336 51.684ZM351.752 52.748C353.022 52.748 354.104 52.2953 355 51.39C355.906 50.4847 356.358 49.388 356.358 48.1C356.358 46.812 355.906 45.7153 355 44.81C354.104 43.9047 353.022 43.452 351.752 43.452C350.474 43.452 349.382 43.9047 348.476 44.81C347.58 45.7153 347.132 46.812 347.132 48.1C347.132 49.388 347.58 50.4847 348.476 51.39C349.382 52.2953 350.474 52.748 351.752 52.748ZM351.794 50.802C351.029 50.802 350.38 50.5407 349.848 50.018C349.316 49.486 349.05 48.8467 349.05 48.1C349.05 47.3533 349.316 46.7187 349.848 46.196C350.38 45.664 351.029 45.398 351.794 45.398C352.289 45.398 352.742 45.5147 353.152 45.748C353.563 45.9813 353.88 46.3033 354.104 46.714L353.138 47.274C352.896 46.7513 352.443 46.49 351.78 46.49C351.304 46.49 350.917 46.6487 350.618 46.966C350.329 47.2833 350.184 47.6613 350.184 48.1C350.184 48.5387 350.329 48.9167 350.618 49.234C350.917 49.5513 351.304 49.71 351.78 49.71C352.079 49.71 352.354 49.64 352.606 49.5C352.858 49.36 353.04 49.164 353.152 48.912L354.118 49.486C353.894 49.8873 353.572 50.2093 353.152 50.452C352.742 50.6853 352.289 50.802 351.794 50.802ZM367.486 47.918C367.934 48.1327 368.289 48.4407 368.55 48.842C368.821 49.2433 368.956 49.7053 368.956 50.228C368.956 51.012 368.681 51.67 368.13 52.202C367.579 52.734 366.907 53 366.114 53H361.886V43.2H365.806C366.571 43.2 367.22 43.4567 367.752 43.97C368.284 44.4833 368.55 45.118 368.55 45.874C368.55 46.742 368.195 47.4233 367.486 47.918ZM365.806 44.418H363.188V47.414H365.806C366.217 47.414 366.562 47.2693 366.842 46.98C367.122 46.6907 367.262 46.336 367.262 45.916C367.262 45.5053 367.117 45.1553 366.828 44.866C366.548 44.5673 366.207 44.418 365.806 44.418ZM366.114 51.782C366.553 51.782 366.921 51.628 367.22 51.32C367.519 51.012 367.668 50.634 367.668 50.186C367.668 49.7473 367.514 49.374 367.206 49.066C366.907 48.758 366.543 48.604 366.114 48.604H363.188V51.782H366.114ZM373.704 53.182C372.65 53.182 371.772 52.832 371.072 52.132C370.372 51.4227 370.022 50.5453 370.022 49.5C370.022 48.4547 370.372 47.582 371.072 46.882C371.772 46.1727 372.65 45.818 373.704 45.818C374.395 45.818 375.016 45.986 375.566 46.322C376.117 46.6487 376.528 47.092 376.798 47.652L375.776 48.24C375.599 47.8667 375.324 47.568 374.95 47.344C374.586 47.12 374.171 47.008 373.704 47.008C373.004 47.008 372.416 47.246 371.94 47.722C371.474 48.198 371.24 48.7907 371.24 49.5C371.24 50.2 371.474 50.788 371.94 51.264C372.416 51.74 373.004 51.978 373.704 51.978C374.171 51.978 374.591 51.8707 374.964 51.656C375.338 51.432 375.622 51.1333 375.818 50.76L376.854 51.362C376.556 51.9127 376.126 52.356 375.566 52.692C375.006 53.0187 374.386 53.182 373.704 53.182ZM378.815 50.06C378.936 50.6853 379.221 51.1707 379.669 51.516C380.126 51.8613 380.686 52.034 381.349 52.034C382.273 52.034 382.945 51.6933 383.365 51.012L384.401 51.6C383.72 52.6547 382.693 53.182 381.321 53.182C380.21 53.182 379.305 52.8367 378.605 52.146C377.914 51.446 377.569 50.564 377.569 49.5C377.569 48.4453 377.91 47.568 378.591 46.868C379.272 46.168 380.154 45.818 381.237 45.818C382.264 45.818 383.099 46.182 383.743 46.91C384.396 47.6287 384.723 48.4967 384.723 49.514C384.723 49.6913 384.709 49.8733 384.681 50.06H378.815ZM381.237 46.966C380.584 46.966 380.042 47.1527 379.613 47.526C379.184 47.89 378.918 48.38 378.815 48.996H383.491C383.388 48.3333 383.127 47.8293 382.707 47.484C382.287 47.1387 381.797 46.966 381.237 46.966ZM395.685 46V53H394.467V47.162H390.841V53H389.623V46H395.685ZM401.403 45.818C402.383 45.818 403.219 46.1773 403.909 46.896C404.6 47.6053 404.945 48.4733 404.945 49.5C404.945 50.5267 404.6 51.3993 403.909 52.118C403.219 52.8273 402.383 53.182 401.403 53.182C400.246 53.182 399.364 52.72 398.757 51.796V55.8H397.539V46H398.757V47.204C399.364 46.28 400.246 45.818 401.403 45.818ZM401.249 52.006C401.949 52.006 402.537 51.768 403.013 51.292C403.489 50.8067 403.727 50.2093 403.727 49.5C403.727 48.7907 403.489 48.198 403.013 47.722C402.537 47.2367 401.949 46.994 401.249 46.994C400.54 46.994 399.947 47.2367 399.471 47.722C398.995 48.198 398.757 48.7907 398.757 49.5C398.757 50.2093 398.995 50.8067 399.471 51.292C399.947 51.768 400.54 52.006 401.249 52.006ZM412.195 46H413.413V53H412.195V51.796C411.588 52.72 410.706 53.182 409.549 53.182C408.569 53.182 407.733 52.8273 407.043 52.118C406.352 51.3993 406.007 50.5267 406.007 49.5C406.007 48.4733 406.352 47.6053 407.043 46.896C407.733 46.1773 408.569 45.818 409.549 45.818C410.706 45.818 411.588 46.28 412.195 47.204V46ZM409.703 52.006C410.412 52.006 411.005 51.768 411.481 51.292C411.957 50.8067 412.195 50.2093 412.195 49.5C412.195 48.7907 411.957 48.198 411.481 47.722C411.005 47.2367 410.412 46.994 409.703 46.994C409.003 46.994 408.415 47.2367 407.939 47.722C407.463 48.198 407.225 48.7907 407.225 49.5C407.225 50.2093 407.463 50.8067 407.939 51.292C408.415 51.768 409.003 52.006 409.703 52.006ZM419.92 49.402C420.639 49.7007 420.998 50.242 420.998 51.026C420.998 51.6047 420.802 52.0807 420.41 52.454C420.027 52.818 419.477 53 418.758 53H415.258V46H418.478C419.178 46 419.719 46.1773 420.102 46.532C420.485 46.8773 420.676 47.3347 420.676 47.904C420.676 48.576 420.424 49.0753 419.92 49.402ZM418.422 47.092H416.448V48.926H418.422C419.131 48.926 419.486 48.6133 419.486 47.988C419.486 47.3907 419.131 47.092 418.422 47.092ZM418.688 51.894C419.043 51.894 419.313 51.81 419.5 51.642C419.696 51.474 419.794 51.236 419.794 50.928C419.794 50.6387 419.696 50.4147 419.5 50.256C419.313 50.088 419.043 50.004 418.688 50.004H416.448V51.894H418.688ZM428.109 46H429.327V53H428.109V51.796C427.502 52.72 426.62 53.182 425.463 53.182C424.483 53.182 423.647 52.8273 422.957 52.118C422.266 51.3993 421.921 50.5267 421.921 49.5C421.921 48.4733 422.266 47.6053 422.957 46.896C423.647 46.1773 424.483 45.818 425.463 45.818C426.62 45.818 427.502 46.28 428.109 47.204V46ZM425.617 52.006C426.326 52.006 426.919 51.768 427.395 51.292C427.871 50.8067 428.109 50.2093 428.109 49.5C428.109 48.7907 427.871 48.198 427.395 47.722C426.919 47.2367 426.326 46.994 425.617 46.994C424.917 46.994 424.329 47.2367 423.853 47.722C423.377 48.198 423.139 48.7907 423.139 49.5C423.139 50.2093 423.377 50.8067 423.853 51.292C424.329 51.768 424.917 52.006 425.617 52.006ZM438.452 49.416C439.227 49.7333 439.614 50.2887 439.614 51.082C439.614 51.67 439.381 52.1693 438.914 52.58C438.447 52.9813 437.785 53.182 436.926 53.182C435.526 53.182 434.588 52.622 434.112 51.502L435.134 50.9C435.405 51.6653 436.007 52.048 436.94 52.048C437.407 52.048 437.766 51.95 438.018 51.754C438.279 51.5487 438.41 51.2873 438.41 50.97C438.41 50.69 438.303 50.4613 438.088 50.284C437.883 50.1067 437.603 50.018 437.248 50.018H436.226V48.912H436.982C437.337 48.912 437.612 48.828 437.808 48.66C438.004 48.4827 438.102 48.2447 438.102 47.946C438.102 47.6473 437.985 47.4047 437.752 47.218C437.528 47.0313 437.215 46.938 436.814 46.938C436.03 46.938 435.498 47.2693 435.218 47.932L434.224 47.358C434.719 46.3313 435.582 45.818 436.814 45.818C437.579 45.818 438.181 46.014 438.62 46.406C439.068 46.798 439.292 47.2787 439.292 47.848C439.292 48.5573 439.012 49.08 438.452 49.416ZM446.73 46H447.948V53H446.73V51.796C446.123 52.72 445.241 53.182 444.084 53.182C443.104 53.182 442.268 52.8273 441.578 52.118C440.887 51.3993 440.542 50.5267 440.542 49.5C440.542 48.4733 440.887 47.6053 441.578 46.896C442.268 46.1773 443.104 45.818 444.084 45.818C445.241 45.818 446.123 46.28 446.73 47.204V46ZM444.238 52.006C444.947 52.006 445.54 51.768 446.016 51.292C446.492 50.8067 446.73 50.2093 446.73 49.5C446.73 48.7907 446.492 48.198 446.016 47.722C445.54 47.2367 444.947 46.994 444.238 46.994C443.538 46.994 442.95 47.2367 442.474 47.722C441.998 48.198 441.76 48.7907 441.76 49.5C441.76 50.2093 441.998 50.8067 442.474 51.292C442.95 51.768 443.538 52.006 444.238 52.006ZM459.313 51.838H460.279V54.876H459.075V53H449.793V46H451.011V51.838H453.951V46H455.169V51.838H458.095V46H459.313V51.838ZM466.674 46H467.654V53H466.45V48.086L462.572 53H461.592V46H462.796V50.914L466.674 46ZM479.028 51.838H479.994V54.876H478.79V53H469.508V46H470.726V51.838H473.666V46H474.884V51.838H477.81V46H479.028V51.838ZM481.887 50.06C482.009 50.6853 482.293 51.1707 482.741 51.516C483.199 51.8613 483.759 52.034 484.421 52.034C485.345 52.034 486.017 51.6933 486.437 51.012L487.473 51.6C486.792 52.6547 485.765 53.182 484.393 53.182C483.283 53.182 482.377 52.8367 481.677 52.146C480.987 51.446 480.641 50.564 480.641 49.5C480.641 48.4453 480.982 47.568 481.663 46.868C482.345 46.168 483.227 45.818 484.309 45.818C485.336 45.818 486.171 46.182 486.815 46.91C487.469 47.6287 487.795 48.4967 487.795 49.514C487.795 49.6913 487.781 49.8733 487.753 50.06H481.887ZM484.309 46.966C483.656 46.966 483.115 47.1527 482.685 47.526C482.256 47.89 481.99 48.38 481.887 48.996H486.563C486.461 48.3333 486.199 47.8293 485.779 47.484C485.359 47.1387 484.869 46.966 484.309 46.966ZM494.039 46H495.257V53H494.039V50.074H490.413V53H489.195V46H490.413V48.912H494.039V46ZM500.066 48.52C500.766 48.52 501.344 48.73 501.802 49.15C502.268 49.5607 502.502 50.0973 502.502 50.76C502.502 51.4227 502.268 51.964 501.802 52.384C501.344 52.7947 500.766 53 500.066 53H497.111V46H498.33V48.52H500.066ZM503.412 46H504.63V53H503.412V46ZM500.066 51.866C500.411 51.866 500.7 51.768 500.934 51.572C501.176 51.3667 501.298 51.096 501.298 50.76C501.298 50.424 501.176 50.1533 500.934 49.948C500.7 49.7427 500.411 49.64 500.066 49.64H498.33V51.866H500.066ZM507.26 53.154C507.008 53.154 506.794 53.0653 506.616 52.888C506.439 52.7107 506.35 52.496 506.35 52.244C506.35 51.992 506.439 51.7773 506.616 51.6C506.794 51.4227 507.008 51.334 507.26 51.334C507.522 51.334 507.736 51.4227 507.904 51.6C508.082 51.7773 508.17 51.992 508.17 52.244C508.17 52.496 508.082 52.7107 507.904 52.888C507.736 53.0653 507.522 53.154 507.26 53.154Z" fill="#333333"/>
<path d="M312.504 53H311.504V54H312.504V53ZM312.504 51.936L311.79 51.236L311.504 51.5276V51.936H312.504ZM315.962 48.408L315.255 47.7009L315.248 47.708L315.962 48.408ZM316.844 44.74L317.52 44.0028L316.844 44.74ZM313.596 45.594L313.088 46.4554L314.027 47.0092L314.498 46.0258L313.596 45.594ZM312.504 44.95L311.604 44.5134L311.202 45.343L311.996 45.8114L312.504 44.95ZM313.778 43.508L313.268 42.6479L313.261 42.6518L313.778 43.508ZM316.9 49.248L317.605 49.9571L317.607 49.9551L316.9 49.248ZM314.394 51.74L313.689 51.0309L311.97 52.74H314.394V51.74ZM318.832 51.74H319.832V50.74H318.832V51.74ZM318.832 53V54H319.832V53H318.832ZM313.504 53V51.936H311.504V53H313.504ZM313.218 52.636L316.676 49.108L315.248 47.708L311.79 51.236L313.218 52.636ZM316.669 49.1151C317.621 48.1629 318.348 47.1181 318.348 46.028H316.348C316.348 46.2633 316.151 46.8051 315.255 47.7009L316.669 49.1151ZM318.348 46.028C318.348 45.2602 318.105 44.5391 317.52 44.0028L316.168 45.4772C316.255 45.5569 316.348 45.6945 316.348 46.028H318.348ZM317.52 44.0028C316.987 43.5142 316.33 43.278 315.612 43.278V45.278C315.865 45.278 316.029 45.3498 316.168 45.4772L317.52 44.0028ZM315.612 43.278C314.986 43.278 314.39 43.4288 313.868 43.7696C313.349 44.1084 312.966 44.5935 312.694 45.1622L314.498 46.0258C314.646 45.7172 314.809 45.5443 314.962 45.4444C315.112 45.3465 315.314 45.278 315.612 45.278V43.278ZM314.104 44.7326L313.012 44.0886L311.996 45.8114L313.088 46.4554L314.104 44.7326ZM313.404 45.3866C313.637 44.905 313.938 44.5796 314.295 44.3642L313.261 42.6518C312.536 43.0897 311.987 43.7256 311.604 44.5134L313.404 45.3866ZM314.288 44.3681C314.679 44.1363 315.108 44.018 315.598 44.018V42.018C314.762 42.018 313.978 42.2264 313.268 42.6479L314.288 44.3681ZM315.598 44.018C316.177 44.018 316.653 44.2001 317.074 44.5761L318.406 43.0839C317.614 42.3772 316.662 42.018 315.598 42.018V44.018ZM317.074 44.5761C317.44 44.9029 317.65 45.3447 317.65 46.014H319.65C319.65 44.854 319.253 43.8398 318.406 43.0839L317.074 44.5761ZM317.65 46.014C317.65 46.6079 317.29 47.4434 316.193 48.5409L317.607 49.9551C318.843 48.7193 319.65 47.3988 319.65 46.014H317.65ZM316.195 48.5389L313.689 51.0309L315.099 52.4491L317.605 49.9571L316.195 48.5389ZM314.394 52.74H318.832V50.74H314.394V52.74ZM317.832 51.74V53H319.832V51.74H317.832ZM318.832 52H312.504V54H318.832V52ZM326.442 51.796L325.629 51.2132L325.629 51.2132L326.442 51.796ZM320.87 51.796L321.683 51.2132L321.683 51.2132L320.87 51.796ZM320.87 44.404L321.683 44.9868L321.683 44.9868L320.87 44.404ZM326.442 44.404L325.629 44.9868L325.629 44.9868L326.442 44.404ZM321.822 50.914L322.661 50.3703L322.661 50.3703L321.822 50.914ZM325.49 50.914L324.656 50.362L324.651 50.3703L325.49 50.914ZM325.49 45.286L324.647 45.8244L324.652 45.8312L324.656 45.838L325.49 45.286ZM321.822 45.272L320.983 44.7283L320.983 44.7283L321.822 45.272ZM325.629 51.2132C325.166 51.8601 324.548 52.182 323.656 52.182V54.182C325.154 54.182 326.393 53.5799 327.255 52.3788L325.629 51.2132ZM323.656 52.182C322.764 52.182 322.147 51.8601 321.683 51.2132L320.057 52.3788C320.919 53.5799 322.158 54.182 323.656 54.182V52.182ZM321.683 51.2132C321.178 50.51 320.876 49.5037 320.876 48.1H318.876C318.876 49.7763 319.236 51.234 320.057 52.3788L321.683 51.2132ZM320.876 48.1C320.876 46.6963 321.178 45.69 321.683 44.9868L320.057 43.8212C319.236 44.966 318.876 46.4237 318.876 48.1H320.876ZM321.683 44.9868C322.147 44.3399 322.764 44.018 323.656 44.018V42.018C322.158 42.018 320.919 42.6201 320.057 43.8212L321.683 44.9868ZM323.656 44.018C324.548 44.018 325.166 44.3399 325.629 44.9868L327.255 43.8212C326.393 42.6201 325.154 42.018 323.656 42.018V44.018ZM325.629 44.9868C326.134 45.69 326.436 46.6963 326.436 48.1H328.436C328.436 46.4237 328.076 44.966 327.255 43.8212L325.629 44.9868ZM326.436 48.1C326.436 49.5037 326.134 50.51 325.629 51.2132L327.255 52.3788C328.076 51.234 328.436 49.7763 328.436 48.1H326.436ZM320.983 51.4577C321.598 52.4066 322.526 52.908 323.656 52.908V50.908C323.2 50.908 322.905 50.7468 322.661 50.3703L320.983 51.4577ZM323.656 52.908C324.786 52.908 325.715 52.4066 326.329 51.4577L324.651 50.3703C324.407 50.7468 324.112 50.908 323.656 50.908V52.908ZM326.324 51.466C326.914 50.5745 327.148 49.4134 327.148 48.1H325.148C325.148 49.2133 324.943 49.9282 324.656 50.362L326.324 51.466ZM327.148 48.1C327.148 46.7866 326.914 45.6255 326.324 44.734L324.656 45.838C324.943 46.2718 325.148 46.9867 325.148 48.1H327.148ZM326.333 44.7476C325.721 43.7898 324.793 43.278 323.656 43.278V45.278C324.106 45.278 324.401 45.4382 324.647 45.8244L326.333 44.7476ZM323.656 43.278C322.526 43.278 321.598 43.7794 320.983 44.7283L322.661 45.8157C322.905 45.4392 323.2 45.278 323.656 45.278V43.278ZM320.983 44.7283C320.406 45.619 320.178 46.7821 320.178 48.1H322.178C322.178 46.9725 322.38 46.2503 322.661 45.8157L320.983 44.7283ZM320.178 48.1C320.178 49.4103 320.406 50.568 320.983 51.4577L322.661 50.3703C322.379 49.9347 322.178 49.2163 322.178 48.1H320.178ZM328.391 53H327.391V54H328.391V53ZM328.391 51.936L327.677 51.236L327.391 51.5276V51.936H328.391ZM331.849 48.408L331.142 47.7009L331.135 47.708L331.849 48.408ZM332.731 44.74L333.406 44.0028L332.731 44.74ZM329.483 45.594L328.975 46.4554L329.914 47.0092L330.385 46.0258L329.483 45.594ZM328.391 44.95L327.491 44.5134L327.088 45.343L327.883 45.8114L328.391 44.95ZM329.665 43.508L329.155 42.6479L329.148 42.6518L329.665 43.508ZM332.787 49.248L333.492 49.9571L333.494 49.9551L332.787 49.248ZM330.281 51.74L329.576 51.0309L327.857 52.74H330.281V51.74ZM334.719 51.74H335.719V50.74H334.719V51.74ZM334.719 53V54H335.719V53H334.719ZM329.391 53V51.936H327.391V53H329.391ZM329.105 52.636L332.563 49.108L331.135 47.708L327.677 51.236L329.105 52.636ZM332.556 49.1151C333.508 48.1629 334.235 47.1181 334.235 46.028H332.235C332.235 46.2633 332.037 46.8051 331.142 47.7009L332.556 49.1151ZM334.235 46.028C334.235 45.2602 333.991 44.5391 333.406 44.0028L332.055 45.4772C332.142 45.5569 332.235 45.6945 332.235 46.028H334.235ZM333.406 44.0028C332.873 43.5142 332.217 43.278 331.499 43.278V45.278C331.752 45.278 331.916 45.3498 332.055 45.4772L333.406 44.0028ZM331.499 43.278C330.873 43.278 330.277 43.4288 329.755 43.7696C329.236 44.1084 328.853 44.5935 328.581 45.1622L330.385 46.0258C330.532 45.7172 330.695 45.5443 330.848 45.4444C330.998 45.3465 331.201 45.278 331.499 45.278V43.278ZM329.991 44.7326L328.899 44.0886L327.883 45.8114L328.975 46.4554L329.991 44.7326ZM329.29 45.3866C329.524 44.905 329.824 44.5796 330.181 44.3642L329.148 42.6518C328.422 43.0897 327.873 43.7256 327.491 44.5134L329.29 45.3866ZM330.175 44.3681C330.566 44.1363 330.995 44.018 331.485 44.018V42.018C330.649 42.018 329.865 42.2264 329.155 42.6479L330.175 44.3681ZM331.485 44.018C332.063 44.018 332.54 44.2001 332.961 44.5761L334.293 43.0839C333.501 42.3772 332.549 42.018 331.485 42.018V44.018ZM332.961 44.5761C333.327 44.9029 333.537 45.3447 333.537 46.014H335.537C335.537 44.854 335.14 43.8398 334.293 43.0839L332.961 44.5761ZM333.537 46.014C333.537 46.6079 333.177 47.4434 332.08 48.5409L333.494 49.9551C334.73 48.7193 335.537 47.3988 335.537 46.014H333.537ZM332.082 48.5389L329.576 51.0309L330.986 52.4491L333.492 49.9571L332.082 48.5389ZM330.281 52.74H334.719V50.74H330.281V52.74ZM333.719 51.74V53H335.719V51.74H333.719ZM334.719 52H328.391V54H334.719V52ZM335.774 53H334.774V54H335.774V53ZM335.774 51.936L335.059 51.236L334.774 51.5276V51.936H335.774ZM339.232 48.408L338.524 47.7009L338.517 47.708L339.232 48.408ZM340.114 44.74L340.789 44.0028L340.114 44.74ZM336.866 45.594L336.358 46.4554L337.297 47.0092L337.768 46.0258L336.866 45.594ZM335.774 44.95L334.874 44.5134L334.471 45.343L335.266 45.8114L335.774 44.95ZM337.048 43.508L336.537 42.6479L336.531 42.6518L337.048 43.508ZM340.17 49.248L340.875 49.9571L340.877 49.9551L340.17 49.248ZM337.664 51.74L336.958 51.0309L335.24 52.74H337.664V51.74ZM342.102 51.74H343.102V50.74H342.102V51.74ZM342.102 53V54H343.102V53H342.102ZM336.774 53V51.936H334.774V53H336.774ZM336.488 52.636L339.946 49.108L338.517 47.708L335.059 51.236L336.488 52.636ZM339.939 49.1151C340.891 48.1629 341.618 47.1181 341.618 46.028H339.618C339.618 46.2633 339.42 46.8051 338.524 47.7009L339.939 49.1151ZM341.618 46.028C341.618 45.2602 341.374 44.5391 340.789 44.0028L339.438 45.4772C339.525 45.5569 339.618 45.6945 339.618 46.028H341.618ZM340.789 44.0028C340.256 43.5142 339.599 43.278 338.882 43.278V45.278C339.134 45.278 339.299 45.3498 339.438 45.4772L340.789 44.0028ZM338.882 43.278C338.256 43.278 337.66 43.4288 337.138 43.7696C336.619 44.1084 336.236 44.5935 335.964 45.1622L337.768 46.0258C337.915 45.7172 338.078 45.5443 338.231 45.4444C338.381 45.3465 338.584 45.278 338.882 45.278V43.278ZM337.374 44.7326L336.282 44.0886L335.266 45.8114L336.358 46.4554L337.374 44.7326ZM336.673 45.3866C336.907 44.905 337.207 44.5796 337.564 44.3642L336.531 42.6518C335.805 43.0897 335.256 43.7256 334.874 44.5134L336.673 45.3866ZM337.558 44.3681C337.948 44.1363 338.378 44.018 338.868 44.018V42.018C338.032 42.018 337.248 42.2264 336.537 42.6479L337.558 44.3681ZM338.868 44.018C339.446 44.018 339.922 44.2001 340.344 44.5761L341.675 43.0839C340.883 42.3772 339.932 42.018 338.868 42.018V44.018ZM340.344 44.5761C340.71 44.9029 340.92 45.3447 340.92 46.014H342.92C342.92 44.854 342.522 43.8398 341.675 43.0839L340.344 44.5761ZM340.92 46.014C340.92 46.6079 340.56 47.4434 339.462 48.5409L340.877 49.9551C342.112 48.7193 342.92 47.3988 342.92 46.014H340.92ZM339.464 48.5389L336.958 51.0309L338.369 52.4491L340.875 49.9571L339.464 48.5389ZM337.664 52.74H342.102V50.74H337.664V52.74ZM341.102 51.74V53H343.102V51.74H341.102ZM342.102 52H335.774V54H342.102V52ZM355.336 51.684L354.629 50.9769L354.629 50.9769L355.336 51.684ZM348.168 51.684L348.875 50.9769L348.875 50.9769L348.168 51.684ZM348.168 44.516L348.875 45.2231L348.875 45.2231L348.168 44.516ZM355 51.39L354.293 50.6829L354.29 50.6866L355 51.39ZM355 44.81L354.29 45.5134L354.293 45.5171L355 44.81ZM348.476 44.81L347.769 44.1029L347.766 44.1066L348.476 44.81ZM348.476 51.39L347.766 52.0934L347.769 52.0971L348.476 51.39ZM349.848 50.018L349.141 50.7251L349.148 50.7313L349.848 50.018ZM349.848 46.196L350.549 46.9094L350.555 46.9031L349.848 46.196ZM353.152 45.748L352.658 46.6175L352.658 46.6175L353.152 45.748ZM354.104 46.714L354.606 47.5791L355.449 47.0905L354.982 46.2351L354.104 46.714ZM353.138 47.274L352.231 47.6951L352.692 48.6884L353.64 48.1391L353.138 47.274ZM350.618 46.966L349.89 46.2806L349.885 46.2864L349.879 46.2922L350.618 46.966ZM350.618 49.234L349.879 49.9078L349.885 49.9136L349.89 49.9194L350.618 49.234ZM352.606 49.5L353.092 50.3742L353.092 50.3742L352.606 49.5ZM353.152 48.912L353.663 48.0523L352.696 47.4774L352.239 48.5059L353.152 48.912ZM354.118 49.486L354.992 49.9734L355.466 49.1235L354.629 48.6263L354.118 49.486ZM353.152 50.452L353.646 51.3215L353.653 51.3179L353.152 50.452ZM354.629 50.9769C353.828 51.7786 352.887 52.168 351.752 52.168V54.168C353.417 54.168 354.866 53.5681 356.043 52.3911L354.629 50.9769ZM351.752 52.168C350.617 52.168 349.677 51.7786 348.875 50.9769L347.461 52.3911C348.638 53.5681 350.087 54.168 351.752 54.168V52.168ZM348.875 50.9769C348.074 50.1752 347.684 49.235 347.684 48.1H345.684C345.684 49.765 346.284 51.2141 347.461 52.3911L348.875 50.9769ZM347.684 48.1C347.684 46.965 348.074 46.0248 348.875 45.2231L347.461 43.8089C346.284 44.9859 345.684 46.435 345.684 48.1H347.684ZM348.875 45.2231C349.677 44.4214 350.617 44.032 351.752 44.032V42.032C350.087 42.032 348.638 42.6319 347.461 43.8089L348.875 45.2231ZM351.752 44.032C352.887 44.032 353.828 44.4214 354.629 45.2231L356.043 43.8089C354.866 42.6319 353.417 42.032 351.752 42.032V44.032ZM354.629 45.2231C355.431 46.0248 355.82 46.965 355.82 48.1H357.82C357.82 46.435 357.22 44.9859 356.043 43.8089L354.629 45.2231ZM355.82 48.1C355.82 49.235 355.431 50.1752 354.629 50.9769L356.043 52.3911C357.22 51.2141 357.82 49.765 357.82 48.1H355.82ZM351.752 53.748C353.29 53.748 354.628 53.1878 355.711 52.0934L354.29 50.6866C353.581 51.4029 352.754 51.748 351.752 51.748V53.748ZM355.707 52.0971C356.802 51.003 357.358 49.6514 357.358 48.1H355.358C355.358 49.1246 355.01 49.9664 354.293 50.6829L355.707 52.0971ZM357.358 48.1C357.358 46.5486 356.802 45.197 355.707 44.1029L354.293 45.5171C355.01 46.2336 355.358 47.0754 355.358 48.1H357.358ZM355.711 44.1066C354.628 43.0122 353.29 42.452 351.752 42.452V44.452C352.754 44.452 353.581 44.7971 354.29 45.5134L355.711 44.1066ZM351.752 42.452C350.208 42.452 348.862 43.0103 347.769 44.1029L349.183 45.5171C349.902 44.799 350.739 44.452 351.752 44.452V42.452ZM347.766 44.1066C346.682 45.2015 346.132 46.5519 346.132 48.1H348.132C348.132 47.0721 348.479 46.2292 349.187 45.5134L347.766 44.1066ZM346.132 48.1C346.132 49.6481 346.682 50.9985 347.766 52.0934L349.187 50.6866C348.479 49.9708 348.132 49.1279 348.132 48.1H346.132ZM347.769 52.0971C348.862 53.1897 350.208 53.748 351.752 53.748V51.748C350.739 51.748 349.902 51.401 349.183 50.6829L347.769 52.0971ZM351.794 49.802C351.283 49.802 350.889 49.6383 350.549 49.3047L349.148 50.7313C349.872 51.443 350.775 51.802 351.794 51.802V49.802ZM350.555 49.3109C350.209 48.9648 350.05 48.5792 350.05 48.1H348.05C348.05 49.1141 348.423 50.0072 349.141 50.7251L350.555 49.3109ZM350.05 48.1C350.05 47.6213 350.209 47.2437 350.549 46.9093L349.148 45.4827C348.424 46.1936 348.05 47.0854 348.05 48.1H350.05ZM350.555 46.9031C350.896 46.5622 351.289 46.398 351.794 46.398V44.398C350.769 44.398 349.864 44.7658 349.141 45.4889L350.555 46.9031ZM351.794 46.398C352.124 46.398 352.405 46.4738 352.658 46.6175L353.646 44.8785C353.078 44.5555 352.454 44.398 351.794 44.398V46.398ZM352.658 46.6175C352.909 46.7598 353.092 46.9472 353.226 47.1929L354.982 46.2351C354.668 45.6594 354.217 45.2029 353.646 44.8785L352.658 46.6175ZM353.603 45.8489L352.637 46.4089L353.64 48.1391L354.606 47.5791L353.603 45.8489ZM354.045 46.8529C353.847 46.4249 353.54 46.064 353.117 45.82C352.703 45.581 352.241 45.49 351.78 45.49V47.49C351.982 47.49 352.078 47.5297 352.117 47.552C352.147 47.5693 352.187 47.6004 352.231 47.6951L354.045 46.8529ZM351.78 45.49C351.057 45.49 350.396 45.7428 349.89 46.2806L351.347 47.6514C351.438 47.5545 351.552 47.49 351.78 47.49V45.49ZM349.879 46.2922C349.418 46.7981 349.184 47.418 349.184 48.1H351.184C351.184 47.9047 351.24 47.7686 351.357 47.6398L349.879 46.2922ZM349.184 48.1C349.184 48.782 349.418 49.4019 349.879 49.9078L351.357 48.5602C351.24 48.4314 351.184 48.2953 351.184 48.1H349.184ZM349.89 49.9194C350.396 50.4572 351.057 50.71 351.78 50.71V48.71C351.552 48.71 351.438 48.6455 351.347 48.5486L349.89 49.9194ZM351.78 50.71C352.243 50.71 352.686 50.5997 353.092 50.3742L352.121 48.6258C352.023 48.6803 351.915 48.71 351.78 48.71V50.71ZM353.092 50.3742C353.525 50.1339 353.862 49.7779 354.066 49.3181L352.239 48.5059C352.219 48.5501 352.192 48.5861 352.121 48.6258L353.092 50.3742ZM352.642 49.7717L353.608 50.3457L354.629 48.6263L353.663 48.0523L352.642 49.7717ZM353.245 48.9986C353.114 49.2336 352.925 49.4285 352.652 49.5861L353.653 51.3179C354.22 50.9902 354.675 50.541 354.992 49.9734L353.245 48.9986ZM352.658 49.5825C352.405 49.7262 352.124 49.802 351.794 49.802V51.802C352.454 51.802 353.078 51.6445 353.646 51.3215L352.658 49.5825ZM367.486 47.918L366.914 47.0978L365.507 48.0787L367.054 48.8198L367.486 47.918ZM368.55 48.842L367.712 49.3877L367.716 49.3944L367.721 49.4011L368.55 48.842ZM361.886 53H360.886V54H361.886V53ZM361.886 43.2V42.2H360.886V43.2H361.886ZM367.752 43.97L368.446 43.2504L368.446 43.2504L367.752 43.97ZM363.188 44.418V43.418H362.188V44.418H363.188ZM363.188 47.414H362.188V48.414H363.188V47.414ZM366.842 46.98L367.561 47.6754L367.561 47.6754L366.842 46.98ZM366.828 44.866L366.098 45.5499L366.109 45.5617L366.121 45.5731L366.828 44.866ZM367.22 51.32L367.938 52.0161L367.938 52.0161L367.22 51.32ZM367.206 49.066L366.488 49.7621L366.493 49.7677L366.499 49.7731L367.206 49.066ZM363.188 48.604V47.604H362.188V48.604H363.188ZM363.188 51.782H362.188V52.782H363.188V51.782ZM367.054 48.8198C367.343 48.9583 367.555 49.1459 367.712 49.3877L369.388 48.2963C369.023 47.7354 368.525 47.307 367.918 47.0162L367.054 48.8198ZM367.721 49.4011C367.871 49.624 367.956 49.8879 367.956 50.228H369.956C369.956 49.5227 369.77 48.8627 369.379 48.2829L367.721 49.4011ZM367.956 50.228C367.956 50.7481 367.786 51.1443 367.435 51.4828L368.825 52.9212C369.576 52.1957 369.956 51.2759 369.956 50.228H367.956ZM367.435 51.4828C367.078 51.8276 366.658 52 366.114 52V54C367.156 54 368.08 53.6404 368.825 52.9212L367.435 51.4828ZM366.114 52H361.886V54H366.114V52ZM362.886 53V43.2H360.886V53H362.886ZM361.886 44.2H365.806V42.2H361.886V44.2ZM365.806 44.2C366.322 44.2 366.719 44.3631 367.058 44.6896L368.446 43.2504C367.721 42.5503 366.82 42.2 365.806 42.2V44.2ZM367.058 44.6896C367.389 45.0097 367.55 45.3825 367.55 45.874H369.55C369.55 44.8535 369.179 43.9569 368.446 43.2504L367.058 44.6896ZM367.55 45.874C367.55 46.4165 367.354 46.7909 366.914 47.0978L368.058 48.7382C369.037 48.0557 369.55 47.0675 369.55 45.874H367.55ZM365.806 43.418H363.188V45.418H365.806V43.418ZM362.188 44.418V47.414H364.188V44.418H362.188ZM363.188 48.414H365.806V46.414H363.188V48.414ZM365.806 48.414C366.481 48.414 367.088 48.1638 367.561 47.6754L366.123 46.2846C366.036 46.3749 365.952 46.414 365.806 46.414V48.414ZM367.561 47.6754C368.029 47.1908 368.262 46.5831 368.262 45.916H366.262C366.262 46.0889 366.214 46.1905 366.123 46.2846L367.561 47.6754ZM368.262 45.916C368.262 45.2412 368.013 44.6365 367.535 44.1589L366.121 45.5731C366.222 45.6741 366.262 45.7695 366.262 45.916H368.262ZM367.557 44.1821C367.093 43.6863 366.49 43.418 365.806 43.418V45.418C365.925 45.418 366.003 45.4483 366.098 45.5499L367.557 44.1821ZM366.114 52.782C366.816 52.782 367.446 52.5232 367.938 52.0161L366.502 50.6239C366.396 50.7328 366.289 50.782 366.114 50.782V52.782ZM367.938 52.0161C368.426 51.5126 368.668 50.8811 368.668 50.186H366.668C366.668 50.3869 366.611 50.5114 366.502 50.6239L367.938 52.0161ZM368.668 50.186C368.668 49.4842 368.41 48.8559 367.913 48.3589L366.499 49.7731C366.618 49.8921 366.668 50.0104 366.668 50.186H368.668ZM367.924 48.3699C367.437 47.8675 366.814 47.604 366.114 47.604V49.604C366.273 49.604 366.378 49.6485 366.488 49.7621L367.924 48.3699ZM366.114 47.604H363.188V49.604H366.114V47.604ZM362.188 48.604V51.782H364.188V48.604H362.188ZM363.188 52.782H366.114V50.782H363.188V52.782ZM371.072 52.132L370.36 52.8344L370.365 52.8391L371.072 52.132ZM371.072 46.882L371.779 47.5891L371.784 47.5844L371.072 46.882ZM375.566 46.322L375.045 47.1757L375.056 47.1821L375.566 46.322ZM376.798 47.652L377.297 48.5188L378.104 48.0547L377.699 47.2168L376.798 47.652ZM375.776 48.24L374.873 48.6691L375.337 49.6463L376.275 49.1068L375.776 48.24ZM374.95 47.344L374.426 48.1957L374.436 48.2015L374.95 47.344ZM371.94 47.722L371.233 47.0149L371.226 47.0219L371.94 47.722ZM371.94 51.264L371.226 51.9641L371.233 51.9711L371.94 51.264ZM374.964 51.656L375.463 52.5229L375.471 52.5183L375.479 52.5135L374.964 51.656ZM375.818 50.76L376.321 49.8954L375.418 49.3709L374.933 50.2952L375.818 50.76ZM376.854 51.362L377.733 51.8388L378.196 50.9852L377.357 50.4974L376.854 51.362ZM375.566 52.692L376.07 53.5558L376.081 53.5495L375.566 52.692ZM373.704 52.182C372.896 52.182 372.279 51.9242 371.779 51.4249L370.365 52.8391C371.266 53.7398 372.404 54.182 373.704 54.182V52.182ZM371.784 51.4296C371.278 50.9173 371.022 50.2967 371.022 49.5H369.022C369.022 50.794 369.466 51.928 370.36 52.8344L371.784 51.4296ZM371.022 49.5C371.022 48.7034 371.278 48.0902 371.779 47.5891L370.365 46.1749C369.466 47.0738 369.022 48.2059 369.022 49.5H371.022ZM371.784 47.5844C372.284 47.0775 372.9 46.818 373.704 46.818V44.818C372.399 44.818 371.26 45.2678 370.36 46.1796L371.784 47.5844ZM373.704 46.818C374.225 46.818 374.663 46.9422 375.045 47.1756L376.087 45.4684C375.368 45.0298 374.565 44.818 373.704 44.818V46.818ZM375.056 47.1821C375.443 47.4116 375.715 47.7095 375.898 48.0872L377.699 47.2168C377.34 46.4745 376.791 45.8857 376.076 45.4619L375.056 47.1821ZM376.3 46.7852L375.278 47.3732L376.275 49.1068L377.297 48.5188L376.3 46.7852ZM376.68 47.8109C376.413 47.2499 375.998 46.8062 375.465 46.4865L374.436 48.2015C374.65 48.3298 374.785 48.4835 374.873 48.6691L376.68 47.8109ZM375.474 46.4923C374.938 46.1625 374.338 46.008 373.704 46.008V48.008C374.003 48.008 374.234 48.0775 374.426 48.1957L375.474 46.4923ZM373.704 46.008C372.751 46.008 371.905 46.3432 371.233 47.0149L372.647 48.4291C372.928 48.1488 373.258 48.008 373.704 48.008V46.008ZM371.226 47.0219C370.564 47.6977 370.24 48.5474 370.24 49.5H372.24C372.24 49.0339 372.384 48.6983 372.654 48.4221L371.226 47.0219ZM370.24 49.5C370.24 50.4472 370.566 51.291 371.226 51.9641L372.654 50.5639C372.381 50.285 372.24 49.9528 372.24 49.5H370.24ZM371.233 51.9711C371.905 52.6428 372.751 52.978 373.704 52.978V50.978C373.258 50.978 372.928 50.8372 372.647 50.5569L371.233 51.9711ZM373.704 52.978C374.331 52.978 374.925 52.832 375.463 52.5229L374.466 50.7891C374.257 50.9093 374.011 50.978 373.704 50.978V52.978ZM375.479 52.5135C376.004 52.1983 376.419 51.7661 376.704 51.2248L374.933 50.2952C374.825 50.5006 374.671 50.6657 374.45 50.7985L375.479 52.5135ZM375.316 51.6246L376.352 52.2266L377.357 50.4974L376.321 49.8954L375.316 51.6246ZM375.975 50.8852C375.766 51.2718 375.465 51.5864 375.052 51.8345L376.081 53.5495C376.787 53.1256 377.346 52.5535 377.733 51.8388L375.975 50.8852ZM375.062 51.8282C374.663 52.0611 374.218 52.182 373.704 52.182V54.182C374.553 54.182 375.349 53.9763 376.07 53.5558L375.062 51.8282ZM378.815 50.06V49.06H377.602L377.833 50.2505L378.815 50.06ZM379.669 51.516L379.059 52.308L379.067 52.314L379.669 51.516ZM383.365 51.012L383.859 50.1423L383.02 49.6663L382.514 50.4873L383.365 51.012ZM384.401 51.6L385.241 52.1426L385.816 51.2531L384.895 50.7303L384.401 51.6ZM378.605 52.146L377.893 52.8484L377.903 52.8578L378.605 52.146ZM378.591 46.868L377.875 46.1705L377.875 46.1705L378.591 46.868ZM383.743 46.91L382.994 47.5726L383.003 47.5827L383.743 46.91ZM384.681 50.06V51.06H385.542L385.67 50.2083L384.681 50.06ZM379.613 47.526L380.26 48.2888L380.269 48.2806L379.613 47.526ZM378.815 48.996L377.829 48.8316L377.635 49.996H378.815V48.996ZM383.491 48.996V49.996H384.658L384.479 48.8429L383.491 48.996ZM382.707 47.484L383.342 46.7116L383.342 46.7116L382.707 47.484ZM377.833 50.2505C377.995 51.0825 378.393 51.7951 379.059 52.308L380.28 50.724C380.049 50.5462 379.878 50.2881 379.797 49.8695L377.833 50.2505ZM379.067 52.314C379.724 52.8103 380.504 53.034 381.349 53.034V51.034C380.869 51.034 380.529 50.9124 380.272 50.718L379.067 52.314ZM381.349 53.034C382.557 53.034 383.583 52.5636 384.216 51.5367L382.514 50.4873C382.307 50.8231 381.989 51.034 381.349 51.034V53.034ZM382.872 51.8817L383.908 52.4697L384.895 50.7303L383.859 50.1423L382.872 51.8817ZM383.561 51.0574C383.083 51.7968 382.391 52.182 381.321 52.182V54.182C382.995 54.182 384.356 53.5125 385.241 52.1426L383.561 51.0574ZM381.321 52.182C380.436 52.182 379.796 51.9157 379.307 51.4342L377.903 52.8578C378.815 53.7576 379.985 54.182 381.321 54.182V52.182ZM379.317 51.4437C378.827 50.947 378.569 50.3248 378.569 49.5H376.569C376.569 50.8031 377.002 51.945 377.893 52.8483L379.317 51.4437ZM378.569 49.5C378.569 48.683 378.823 48.063 379.308 47.5655L377.875 46.1705C376.996 47.073 376.569 48.2076 376.569 49.5H378.569ZM379.308 47.5655C379.779 47.0808 380.392 46.818 381.237 46.818V44.818C379.917 44.818 378.765 45.2552 377.875 46.1705L379.308 47.5655ZM381.237 46.818C381.996 46.818 382.552 47.0725 382.994 47.5726L384.492 46.2474C383.647 45.2915 382.532 44.818 381.237 44.818V46.818ZM383.003 47.5827C383.481 48.1079 383.723 48.7325 383.723 49.514H385.723C385.723 48.2609 385.312 47.1494 384.483 46.2373L383.003 47.5827ZM383.723 49.514C383.723 49.6386 383.713 49.771 383.692 49.9117L385.67 50.2083C385.705 49.9757 385.723 49.744 385.723 49.514H383.723ZM384.681 49.06H378.815V51.06H384.681V49.06ZM381.237 45.966C380.381 45.966 379.595 46.2165 378.957 46.7714L380.269 48.2806C380.49 48.0888 380.787 47.966 381.237 47.966V45.966ZM378.966 46.7632C378.337 47.2972 377.966 48.0096 377.829 48.8316L379.802 49.1604C379.87 48.7504 380.031 48.4828 380.26 48.2888L378.966 46.7632ZM378.815 49.996H383.491V47.996H378.815V49.996ZM384.479 48.8429C384.348 47.9965 383.994 47.2472 383.342 46.7116L382.072 48.2564C382.261 48.4115 382.429 48.6702 382.503 49.1491L384.479 48.8429ZM383.342 46.7116C382.738 46.2144 382.021 45.966 381.237 45.966V47.966C381.573 47.966 381.837 48.0629 382.072 48.2564L383.342 46.7116ZM395.685 46H396.685V45H395.685V46ZM395.685 53V54H396.685V53H395.685ZM394.467 53H393.467V54H394.467V53ZM394.467 47.162H395.467V46.162H394.467V47.162ZM390.841 47.162V46.162H389.841V47.162H390.841ZM390.841 53V54H391.841V53H390.841ZM389.623 53H388.623V54H389.623V53ZM389.623 46V45H388.623V46H389.623ZM394.685 46V53H396.685V46H394.685ZM395.685 52H394.467V54H395.685V52ZM395.467 53V47.162H393.467V53H395.467ZM394.467 46.162H390.841V48.162H394.467V46.162ZM389.841 47.162V53H391.841V47.162H389.841ZM390.841 52H389.623V54H390.841V52ZM390.623 53V46H388.623V53H390.623ZM389.623 47H395.685V45H389.623V47ZM403.909 46.896L403.188 47.5889L403.193 47.5936L403.909 46.896ZM403.909 52.118L404.626 52.8156L404.63 52.8109L403.909 52.118ZM398.757 51.796L399.593 51.2472L397.757 48.4509V51.796H398.757ZM398.757 55.8V56.8H399.757V55.8H398.757ZM397.539 55.8H396.539V56.8H397.539V55.8ZM397.539 46V45H396.539V46H397.539ZM398.757 46H399.757V45H398.757V46ZM398.757 47.204H397.757V50.5491L399.593 47.7528L398.757 47.204ZM403.013 51.292L403.72 51.9991L403.727 51.9922L403.013 51.292ZM403.013 47.722L402.299 48.4222L402.306 48.4291L403.013 47.722ZM399.471 47.722L400.178 48.4291L400.185 48.4222L399.471 47.722ZM399.471 51.292L398.757 51.9922L398.764 51.9991L399.471 51.292ZM401.403 46.818C402.106 46.818 402.682 47.0627 403.188 47.5889L404.63 46.2031C403.755 45.292 402.661 44.818 401.403 44.818V46.818ZM403.193 47.5936C403.694 48.1087 403.945 48.7232 403.945 49.5H405.945C405.945 48.2235 405.506 47.102 404.626 46.1984L403.193 47.5936ZM403.945 49.5C403.945 50.2769 403.694 50.8988 403.188 51.4251L404.63 52.8109C405.506 51.8999 405.945 50.7764 405.945 49.5H403.945ZM403.193 51.4204C402.688 51.9386 402.11 52.182 401.403 52.182V54.182C402.656 54.182 403.749 53.716 404.626 52.8156L403.193 51.4204ZM401.403 52.182C400.564 52.182 400.005 51.8741 399.593 51.2472L397.921 52.3448C398.723 53.5659 399.928 54.182 401.403 54.182V52.182ZM397.757 51.796V55.8H399.757V51.796H397.757ZM398.757 54.8H397.539V56.8H398.757V54.8ZM398.539 55.8V46H396.539V55.8H398.539ZM397.539 47H398.757V45H397.539V47ZM397.757 46V47.204H399.757V46H397.757ZM399.593 47.7528C400.005 47.1259 400.564 46.818 401.403 46.818V44.818C399.928 44.818 398.723 45.4341 397.921 46.6552L399.593 47.7528ZM401.249 53.006C402.203 53.006 403.049 52.6708 403.72 51.9991L402.306 50.5849C402.026 50.8652 401.696 51.006 401.249 51.006V53.006ZM403.727 51.9922C404.395 51.3111 404.727 50.4585 404.727 49.5H402.727C402.727 49.9601 402.583 50.3022 402.299 50.5918L403.727 51.9922ZM404.727 49.5C404.727 48.5413 404.395 47.6893 403.72 47.0149L402.306 48.4291C402.584 48.7067 402.727 49.04 402.727 49.5H404.727ZM403.727 47.0218C403.057 46.3384 402.209 45.994 401.249 45.994V47.994C401.69 47.994 402.018 48.1349 402.299 48.4222L403.727 47.0218ZM401.249 45.994C400.284 45.994 399.43 46.3356 398.757 47.0218L400.185 48.4222C400.464 48.1377 400.795 47.994 401.249 47.994V45.994ZM398.764 47.0149C398.09 47.6893 397.757 48.5413 397.757 49.5H399.757C399.757 49.04 399.901 48.7067 400.178 48.4291L398.764 47.0149ZM397.757 49.5C397.757 50.4585 398.089 51.3111 398.757 51.9922L400.185 50.5918C399.901 50.3022 399.757 49.9601 399.757 49.5H397.757ZM398.764 51.9991C399.439 52.6736 400.291 53.006 401.249 53.006V51.006C400.789 51.006 400.456 50.8624 400.178 50.5849L398.764 51.9991ZM412.195 46V45H411.195V46H412.195ZM413.413 46H414.413V45H413.413V46ZM413.413 53V54H414.413V53H413.413ZM412.195 53H411.195V54H412.195V53ZM412.195 51.796H413.195V48.4509L411.359 51.2472L412.195 51.796ZM407.043 52.118L406.322 52.8109L406.326 52.8156L407.043 52.118ZM407.043 46.896L407.759 47.5936L407.764 47.5889L407.043 46.896ZM412.195 47.204L411.359 47.7528L413.195 50.5491V47.204H412.195ZM411.481 51.292L412.188 51.9991L412.195 51.9922L411.481 51.292ZM411.481 47.722L410.767 48.4222L410.774 48.4291L411.481 47.722ZM407.939 47.722L408.646 48.4291L408.653 48.4222L407.939 47.722ZM407.939 51.292L407.225 51.9922L407.232 51.9991L407.939 51.292ZM412.195 47H413.413V45H412.195V47ZM412.413 46V53H414.413V46H412.413ZM413.413 52H412.195V54H413.413V52ZM413.195 53V51.796H411.195V53H413.195ZM411.359 51.2472C410.947 51.8741 410.388 52.182 409.549 52.182V54.182C411.024 54.182 412.229 53.5659 413.031 52.3448L411.359 51.2472ZM409.549 52.182C408.842 52.182 408.264 51.9386 407.759 51.4204L406.326 52.8156C407.203 53.716 408.296 54.182 409.549 54.182V52.182ZM407.764 51.4251C407.258 50.8988 407.007 50.2769 407.007 49.5H405.007C405.007 50.7764 405.446 51.8999 406.322 52.8109L407.764 51.4251ZM407.007 49.5C407.007 48.7232 407.258 48.1087 407.759 47.5936L406.326 46.1984C405.446 47.102 405.007 48.2235 405.007 49.5H407.007ZM407.764 47.5889C408.269 47.0627 408.846 46.818 409.549 46.818V44.818C408.291 44.818 407.197 45.292 406.322 46.2031L407.764 47.5889ZM409.549 46.818C410.388 46.818 410.947 47.1259 411.359 47.7528L413.031 46.6552C412.229 45.4341 411.024 44.818 409.549 44.818V46.818ZM413.195 47.204V46H411.195V47.204H413.195ZM409.703 53.006C410.661 53.006 411.513 52.6736 412.188 51.9991L410.774 50.5849C410.496 50.8624 410.163 51.006 409.703 51.006V53.006ZM412.195 51.9922C412.863 51.3111 413.195 50.4585 413.195 49.5H411.195C411.195 49.9601 411.051 50.3022 410.767 50.5918L412.195 51.9922ZM413.195 49.5C413.195 48.5413 412.862 47.6893 412.188 47.0149L410.774 48.4291C411.051 48.7067 411.195 49.04 411.195 49.5H413.195ZM412.195 47.0218C411.522 46.3356 410.667 45.994 409.703 45.994V47.994C410.156 47.994 410.488 48.1377 410.767 48.4222L412.195 47.0218ZM409.703 45.994C408.743 45.994 407.895 46.3384 407.225 47.0218L408.653 48.4222C408.934 48.1349 409.262 47.994 409.703 47.994V45.994ZM407.232 47.0149C406.557 47.6893 406.225 48.5413 406.225 49.5H408.225C408.225 49.04 408.368 48.7067 408.646 48.4291L407.232 47.0149ZM406.225 49.5C406.225 50.4585 406.557 51.3111 407.225 51.9922L408.653 50.5918C408.369 50.3022 408.225 49.9601 408.225 49.5H406.225ZM407.232 51.9991C407.903 52.6708 408.749 53.006 409.703 53.006V51.006C409.256 51.006 408.926 50.8652 408.646 50.5849L407.232 51.9991ZM419.92 49.402L419.376 48.5628L417.782 49.5963L419.536 50.3254L419.92 49.402ZM420.41 52.454L421.099 53.1786L421.1 53.1781L420.41 52.454ZM415.258 53H414.258V54H415.258V53ZM415.258 46V45H414.258V46H415.258ZM420.102 46.532L419.422 47.2655L419.432 47.2744L420.102 46.532ZM416.448 47.092V46.092H415.448V47.092H416.448ZM416.448 48.926H415.448V49.926H416.448V48.926ZM419.5 51.642L418.849 50.8827L418.84 50.8906L418.831 50.8987L419.5 51.642ZM419.5 50.256L418.831 50.9993L418.85 51.0168L418.871 51.0332L419.5 50.256ZM416.448 50.004V49.004H415.448V50.004H416.448ZM416.448 51.894H415.448V52.894H416.448V51.894ZM419.536 50.3254C419.749 50.4139 419.846 50.5101 419.895 50.585C419.945 50.6606 419.998 50.7896 419.998 51.026H421.998C421.998 50.4784 421.871 49.9448 421.562 49.479C421.252 49.0126 420.809 48.6887 420.304 48.4786L419.536 50.3254ZM419.998 51.026C419.998 51.3521 419.899 51.5593 419.72 51.7299L421.1 53.1781C421.705 52.602 421.998 51.8573 421.998 51.026H419.998ZM419.721 51.7294C419.583 51.8609 419.314 52 418.758 52V54C419.639 54 420.472 53.7751 421.099 53.1786L419.721 51.7294ZM418.758 52H415.258V54H418.758V52ZM416.258 53V46H414.258V53H416.258ZM415.258 47H418.478V45H415.258V47ZM418.478 47C419.014 47 419.28 47.1337 419.422 47.2654L420.782 45.7986C420.159 45.221 419.342 45 418.478 45V47ZM419.432 47.2744C419.581 47.4091 419.676 47.5847 419.676 47.904H421.676C421.676 47.0847 421.388 46.3456 420.772 45.7896L419.432 47.2744ZM419.676 47.904C419.676 48.2846 419.558 48.445 419.376 48.5628L420.464 50.2412C421.29 49.7057 421.676 48.8674 421.676 47.904H419.676ZM418.422 46.092H416.448V48.092H418.422V46.092ZM415.448 47.092V48.926H417.448V47.092H415.448ZM416.448 49.926H418.422V47.926H416.448V49.926ZM418.422 49.926C418.902 49.926 419.449 49.8229 419.881 49.4416C420.338 49.0391 420.486 48.4898 420.486 47.988H418.486C418.486 48.0522 418.477 48.0645 418.484 48.0447C418.488 48.0341 418.496 48.017 418.51 47.9969C418.523 47.9766 418.54 47.9576 418.559 47.9414C418.597 47.9076 418.622 47.903 418.606 47.9079C418.585 47.9138 418.529 47.926 418.422 47.926V49.926ZM420.486 47.988C420.486 47.4858 420.329 46.9424 419.864 46.5511C419.432 46.1875 418.893 46.092 418.422 46.092V48.092C418.532 48.092 418.593 48.104 418.617 48.1108C418.639 48.1169 418.615 48.114 418.576 48.0809C418.557 48.0647 418.538 48.0449 418.522 48.0223C418.506 47.9998 418.496 47.9794 418.49 47.964C418.478 47.9345 418.486 47.9355 418.486 47.988H420.486ZM418.688 52.894C419.188 52.894 419.735 52.7757 420.169 52.3853L418.831 50.8987C418.858 50.8743 418.876 50.8713 418.861 50.8759C418.842 50.8818 418.789 50.894 418.688 50.894V52.894ZM420.151 52.4013C420.612 52.0063 420.794 51.4659 420.794 50.928H418.794C418.794 50.9765 418.786 50.9798 418.796 50.9568C418.8 50.9454 418.808 50.9311 418.819 50.9164C418.829 50.9016 418.84 50.8903 418.849 50.8827L420.151 52.4013ZM420.794 50.928C420.794 50.3869 420.596 49.8567 420.129 49.4788L418.871 51.0332C418.862 51.0258 418.849 51.0136 418.836 50.9965C418.822 50.9792 418.812 50.961 418.804 50.9438C418.789 50.9084 418.794 50.8964 418.794 50.928H420.794ZM420.169 49.5127C419.735 49.1223 419.188 49.004 418.688 49.004V51.004C418.789 51.004 418.842 51.0162 418.861 51.0221C418.876 51.0267 418.858 51.0237 418.831 50.9993L420.169 49.5127ZM418.688 49.004H416.448V51.004H418.688V49.004ZM415.448 50.004V51.894H417.448V50.004H415.448ZM416.448 52.894H418.688V50.894H416.448V52.894ZM428.109 46V45H427.109V46H428.109ZM429.327 46H430.327V45H429.327V46ZM429.327 53V54H430.327V53H429.327ZM428.109 53H427.109V54H428.109V53ZM428.109 51.796H429.109V48.4509L427.273 51.2472L428.109 51.796ZM422.957 52.118L422.236 52.8109L422.24 52.8156L422.957 52.118ZM422.957 46.896L423.673 47.5936L423.678 47.5889L422.957 46.896ZM428.109 47.204L427.273 47.7528L429.109 50.5491V47.204H428.109ZM427.395 51.292L428.102 51.9991L428.109 51.9922L427.395 51.292ZM427.395 47.722L426.681 48.4222L426.688 48.4291L427.395 47.722ZM423.853 47.722L424.56 48.4291L424.567 48.4222L423.853 47.722ZM423.853 51.292L423.139 51.9922L423.146 51.9991L423.853 51.292ZM428.109 47H429.327V45H428.109V47ZM428.327 46V53H430.327V46H428.327ZM429.327 52H428.109V54H429.327V52ZM429.109 53V51.796H427.109V53H429.109ZM427.273 51.2472C426.861 51.8741 426.302 52.182 425.463 52.182V54.182C426.938 54.182 428.143 53.5659 428.945 52.3448L427.273 51.2472ZM425.463 52.182C424.756 52.182 424.178 51.9386 423.673 51.4204L422.24 52.8156C423.117 53.716 424.21 54.182 425.463 54.182V52.182ZM423.678 51.4251C423.172 50.8988 422.921 50.2769 422.921 49.5H420.921C420.921 50.7764 421.36 51.8999 422.236 52.8109L423.678 51.4251ZM422.921 49.5C422.921 48.7232 423.172 48.1087 423.673 47.5936L422.24 46.1984C421.36 47.102 420.921 48.2235 420.921 49.5H422.921ZM423.678 47.5889C424.183 47.0627 424.76 46.818 425.463 46.818V44.818C424.205 44.818 423.111 45.292 422.236 46.2031L423.678 47.5889ZM425.463 46.818C426.302 46.818 426.861 47.1259 427.273 47.7528L428.945 46.6552C428.143 45.4341 426.938 44.818 425.463 44.818V46.818ZM429.109 47.204V46H427.109V47.204H429.109ZM425.617 53.006C426.575 53.006 427.427 52.6736 428.102 51.9991L426.688 50.5849C426.41 50.8624 426.077 51.006 425.617 51.006V53.006ZM428.109 51.9922C428.777 51.3111 429.109 50.4585 429.109 49.5H427.109C427.109 49.9601 426.965 50.3022 426.681 50.5918L428.109 51.9922ZM429.109 49.5C429.109 48.5413 428.776 47.6893 428.102 47.0149L426.688 48.4291C426.965 48.7067 427.109 49.04 427.109 49.5H429.109ZM428.109 47.0218C427.436 46.3356 426.582 45.994 425.617 45.994V47.994C426.07 47.994 426.402 48.1377 426.681 48.4222L428.109 47.0218ZM425.617 45.994C424.657 45.994 423.809 46.3384 423.139 47.0218L424.567 48.4222C424.848 48.1349 425.176 47.994 425.617 47.994V45.994ZM423.146 47.0149C422.471 47.6893 422.139 48.5413 422.139 49.5H424.139C424.139 49.04 424.282 48.7067 424.56 48.4291L423.146 47.0149ZM422.139 49.5C422.139 50.4585 422.471 51.3111 423.139 51.9922L424.567 50.5918C424.283 50.3022 424.139 49.9601 424.139 49.5H422.139ZM423.146 51.9991C423.817 52.6708 424.663 53.006 425.617 53.006V51.006C425.17 51.006 424.84 50.8652 424.56 50.5849L423.146 51.9991ZM438.452 49.416L437.938 48.5585L436.227 49.585L438.073 50.3414L438.452 49.416ZM438.914 52.58L439.566 53.3382L439.575 53.3307L438.914 52.58ZM434.112 51.502L433.605 50.6404L432.849 51.0857L433.192 51.8931L434.112 51.502ZM435.134 50.9L436.077 50.5666L435.672 49.4224L434.627 50.0384L435.134 50.9ZM438.018 51.754L438.632 52.5434L438.636 52.5403L438.018 51.754ZM438.088 50.284L437.434 51.0408L437.443 51.048L437.451 51.055L438.088 50.284ZM436.226 50.018H435.226V51.018H436.226V50.018ZM436.226 48.912V47.912H435.226V48.912H436.226ZM437.808 48.66L438.459 49.4193L438.469 49.4105L438.479 49.4015L437.808 48.66ZM437.752 47.218L437.112 47.9862L437.12 47.9926L437.127 47.9989L437.752 47.218ZM435.218 47.932L434.718 48.798L435.698 49.3642L436.139 48.3212L435.218 47.932ZM434.224 47.358L433.323 46.9239L432.92 47.7599L433.724 48.224L434.224 47.358ZM438.62 46.406L437.954 47.1517L437.962 47.1586L438.62 46.406ZM438.073 50.3414C438.325 50.4444 438.443 50.5563 438.503 50.6426C438.561 50.7251 438.614 50.8538 438.614 51.082H440.614C440.614 50.5168 440.474 49.9713 440.144 49.4984C439.817 49.0294 439.354 48.7049 438.831 48.4906L438.073 50.3414ZM438.614 51.082C438.614 51.3645 438.518 51.5962 438.253 51.8293L439.575 53.3307C440.243 52.7425 440.614 51.9755 440.614 51.082H438.614ZM438.262 51.8218C438.037 52.0152 437.639 52.182 436.926 52.182V54.182C437.93 54.182 438.858 53.9475 439.566 53.3382L438.262 51.8218ZM436.926 52.182C436.357 52.182 435.961 52.0682 435.685 51.9034C435.419 51.7444 435.197 51.4991 435.032 51.1109L433.192 51.8931C433.503 52.6249 433.988 53.2196 434.66 53.6206C435.322 54.0158 436.095 54.182 436.926 54.182V52.182ZM434.62 52.3636L435.642 51.7616L434.627 50.0384L433.605 50.6404L434.62 52.3636ZM434.191 51.2334C434.39 51.7963 434.737 52.2773 435.252 52.6049C435.756 52.9252 436.341 53.048 436.94 53.048V51.048C436.606 51.048 436.423 50.9795 436.325 50.9171C436.238 50.862 436.148 50.769 436.077 50.5666L434.191 51.2334ZM436.94 53.048C437.53 53.048 438.14 52.9263 438.632 52.5434L437.404 50.9646C437.392 50.9737 437.283 51.048 436.94 51.048V53.048ZM438.636 52.5403C439.125 52.1558 439.41 51.6107 439.41 50.97H437.41C437.41 50.9804 437.409 50.982 437.41 50.9772C437.411 50.975 437.411 50.9718 437.413 50.9681C437.414 50.9642 437.416 50.9604 437.418 50.9568C437.422 50.949 437.425 50.9454 437.424 50.9463C437.423 50.9475 437.416 50.955 437.4 50.9677L438.636 52.5403ZM439.41 50.97C439.41 50.3937 439.171 49.8816 438.725 49.513L437.451 51.055C437.455 51.058 437.452 51.056 437.445 51.048C437.439 51.0398 437.431 51.028 437.424 51.0134C437.417 50.9988 437.413 50.9857 437.411 50.9761C437.41 50.9668 437.41 50.9641 437.41 50.97H439.41ZM438.742 49.5272C438.305 49.15 437.768 49.018 437.248 49.018V51.018C437.343 51.018 437.398 51.0301 437.422 51.0378C437.444 51.0446 437.443 51.048 437.434 51.0408L438.742 49.5272ZM437.248 49.018H436.226V51.018H437.248V49.018ZM437.226 50.018V48.912H435.226V50.018H437.226ZM436.226 49.912H436.982V47.912H436.226V49.912ZM436.982 49.912C437.486 49.912 438.024 49.7922 438.459 49.4193L437.157 47.9007C437.175 47.8851 437.184 47.8861 437.163 47.8925C437.139 47.8999 437.082 47.912 436.982 47.912V49.912ZM438.479 49.4015C438.913 49.0089 439.102 48.4865 439.102 47.946H437.102C437.102 47.9854 437.096 47.9873 437.104 47.9678C437.108 47.9585 437.113 47.948 437.12 47.9379C437.128 47.9278 437.134 47.9213 437.137 47.9185L438.479 49.4015ZM439.102 47.946C439.102 47.3434 438.847 46.8135 438.377 46.4371L437.127 47.9989C437.135 48.0048 437.134 48.0057 437.13 48.0004C437.126 47.9948 437.119 47.9856 437.113 47.9733C437.107 47.961 437.104 47.9503 437.103 47.9432C437.101 47.9364 437.102 47.9366 437.102 47.946H439.102ZM438.392 46.4498C437.931 46.0655 437.362 45.938 436.814 45.938V47.938C437.069 47.938 437.125 47.9972 437.112 47.9862L438.392 46.4498ZM436.814 45.938C436.282 45.938 435.758 46.0511 435.298 46.3377C434.832 46.628 434.505 47.0505 434.297 47.5428L436.139 48.3212C436.211 48.1508 436.29 48.0764 436.356 48.0353C436.428 47.9905 436.562 47.938 436.814 47.938V45.938ZM435.718 47.066L434.724 46.492L433.724 48.224L434.718 48.798L435.718 47.066ZM435.125 47.7921C435.299 47.4312 435.513 47.2057 435.754 47.0625C435.999 46.9166 436.337 46.818 436.814 46.818V44.818C436.059 44.818 435.349 44.9761 434.731 45.3435C434.109 45.7137 433.644 46.2581 433.323 46.9239L435.125 47.7921ZM436.814 46.818C437.409 46.818 437.748 46.9678 437.954 47.1517L439.286 45.6603C438.615 45.0602 437.749 44.818 436.814 44.818V46.818ZM437.962 47.1586C438.204 47.3705 438.292 47.5817 438.292 47.848H440.292C440.292 46.9757 439.932 46.2255 439.279 45.6534L437.962 47.1586ZM438.292 47.848C438.292 48.2426 438.166 48.4213 437.938 48.5585L438.967 50.2735C439.858 49.7387 440.292 48.872 440.292 47.848H438.292ZM446.73 46V45H445.73V46H446.73ZM447.948 46H448.948V45H447.948V46ZM447.948 53V54H448.948V53H447.948ZM446.73 53H445.73V54H446.73V53ZM446.73 51.796H447.73V48.4509L445.894 51.2472L446.73 51.796ZM441.578 52.118L440.857 52.8109L440.861 52.8156L441.578 52.118ZM441.578 46.896L442.294 47.5936L442.299 47.5889L441.578 46.896ZM446.73 47.204L445.894 47.7528L447.73 50.5491V47.204H446.73ZM446.016 51.292L446.723 51.9991L446.73 51.9922L446.016 51.292ZM446.016 47.722L445.302 48.4222L445.309 48.4291L446.016 47.722ZM442.474 47.722L443.181 48.4291L443.188 48.4222L442.474 47.722ZM442.474 51.292L441.76 51.9922L441.767 51.9991L442.474 51.292ZM446.73 47H447.948V45H446.73V47ZM446.948 46V53H448.948V46H446.948ZM447.948 52H446.73V54H447.948V52ZM447.73 53V51.796H445.73V53H447.73ZM445.894 51.2472C445.482 51.8741 444.923 52.182 444.084 52.182V54.182C445.559 54.182 446.764 53.5659 447.566 52.3448L445.894 51.2472ZM444.084 52.182C443.377 52.182 442.799 51.9386 442.294 51.4204L440.861 52.8156C441.738 53.716 442.831 54.182 444.084 54.182V52.182ZM442.299 51.4251C441.793 50.8988 441.542 50.2769 441.542 49.5H439.542C439.542 50.7764 439.981 51.8999 440.857 52.8109L442.299 51.4251ZM441.542 49.5C441.542 48.7232 441.793 48.1087 442.294 47.5936L440.861 46.1984C439.981 47.102 439.542 48.2235 439.542 49.5H441.542ZM442.299 47.5889C442.805 47.0627 443.381 46.818 444.084 46.818V44.818C442.826 44.818 441.732 45.292 440.857 46.2031L442.299 47.5889ZM444.084 46.818C444.923 46.818 445.482 47.1259 445.894 47.7528L447.566 46.6552C446.764 45.4341 445.559 44.818 444.084 44.818V46.818ZM447.73 47.204V46H445.73V47.204H447.73ZM444.238 53.006C445.196 53.006 446.048 52.6736 446.723 51.9991L445.309 50.5849C445.031 50.8624 444.698 51.006 444.238 51.006V53.006ZM446.73 51.9922C447.398 51.3111 447.73 50.4585 447.73 49.5H445.73C445.73 49.9601 445.586 50.3022 445.302 50.5918L446.73 51.9922ZM447.73 49.5C447.73 48.5413 447.397 47.6893 446.723 47.0149L445.309 48.4291C445.586 48.7067 445.73 49.04 445.73 49.5H447.73ZM446.73 47.0218C446.057 46.3356 445.203 45.994 444.238 45.994V47.994C444.692 47.994 445.023 48.1377 445.302 48.4222L446.73 47.0218ZM444.238 45.994C443.278 45.994 442.43 46.3384 441.76 47.0218L443.188 48.4222C443.469 48.1349 443.797 47.994 444.238 47.994V45.994ZM441.767 47.0149C441.092 47.6893 440.76 48.5413 440.76 49.5H442.76C442.76 49.04 442.903 48.7067 443.181 48.4291L441.767 47.0149ZM440.76 49.5C440.76 50.4585 441.092 51.3111 441.76 51.9922L443.188 50.5918C442.904 50.3022 442.76 49.9601 442.76 49.5H440.76ZM441.767 51.9991C442.438 52.6708 443.284 53.006 444.238 53.006V51.006C443.791 51.006 443.461 50.8652 443.181 50.5849L441.767 51.9991ZM459.313 51.838H458.313V52.838H459.313V51.838ZM460.279 51.838H461.279V50.838H460.279V51.838ZM460.279 54.876V55.876H461.279V54.876H460.279ZM459.075 54.876H458.075V55.876H459.075V54.876ZM459.075 53H460.075V52H459.075V53ZM449.793 53H448.793V54H449.793V53ZM449.793 46V45H448.793V46H449.793ZM451.011 46H452.011V45H451.011V46ZM451.011 51.838H450.011V52.838H451.011V51.838ZM453.951 51.838V52.838H454.951V51.838H453.951ZM453.951 46V45H452.951V46H453.951ZM455.169 46H456.169V45H455.169V46ZM455.169 51.838H454.169V52.838H455.169V51.838ZM458.095 51.838V52.838H459.095V51.838H458.095ZM458.095 46V45H457.095V46H458.095ZM459.313 46H460.313V45H459.313V46ZM459.313 52.838H460.279V50.838H459.313V52.838ZM459.279 51.838V54.876H461.279V51.838H459.279ZM460.279 53.876H459.075V55.876H460.279V53.876ZM460.075 54.876V53H458.075V54.876H460.075ZM459.075 52H449.793V54H459.075V52ZM450.793 53V46H448.793V53H450.793ZM449.793 47H451.011V45H449.793V47ZM450.011 46V51.838H452.011V46H450.011ZM451.011 52.838H453.951V50.838H451.011V52.838ZM454.951 51.838V46H452.951V51.838H454.951ZM453.951 47H455.169V45H453.951V47ZM454.169 46V51.838H456.169V46H454.169ZM455.169 52.838H458.095V50.838H455.169V52.838ZM459.095 51.838V46H457.095V51.838H459.095ZM458.095 47H459.313V45H458.095V47ZM458.313 46V51.838H460.313V46H458.313ZM466.674 46V45H466.189L465.889 45.3805L466.674 46ZM467.654 46H468.654V45H467.654V46ZM467.654 53V54H468.654V53H467.654ZM466.45 53H465.45V54H466.45V53ZM466.45 48.086H467.45V45.2046L465.665 47.4665L466.45 48.086ZM462.572 53V54H463.057L463.357 53.6195L462.572 53ZM461.592 53H460.592V54H461.592V53ZM461.592 46V45H460.592V46H461.592ZM462.796 46H463.796V45H462.796V46ZM462.796 50.914H461.796V53.7954L463.581 51.5335L462.796 50.914ZM466.674 47H467.654V45H466.674V47ZM466.654 46V53H468.654V46H466.654ZM467.654 52H466.45V54H467.654V52ZM467.45 53V48.086H465.45V53H467.45ZM465.665 47.4665L461.787 52.3805L463.357 53.6195L467.235 48.7055L465.665 47.4665ZM462.572 52H461.592V54H462.572V52ZM462.592 53V46H460.592V53H462.592ZM461.592 47H462.796V45H461.592V47ZM461.796 46V50.914H463.796V46H461.796ZM463.581 51.5335L467.459 46.6195L465.889 45.3805L462.011 50.2945L463.581 51.5335ZM479.028 51.838H478.028V52.838H479.028V51.838ZM479.994 51.838H480.994V50.838H479.994V51.838ZM479.994 54.876V55.876H480.994V54.876H479.994ZM478.79 54.876H477.79V55.876H478.79V54.876ZM478.79 53H479.79V52H478.79V53ZM469.508 53H468.508V54H469.508V53ZM469.508 46V45H468.508V46H469.508ZM470.726 46H471.726V45H470.726V46ZM470.726 51.838H469.726V52.838H470.726V51.838ZM473.666 51.838V52.838H474.666V51.838H473.666ZM473.666 46V45H472.666V46H473.666ZM474.884 46H475.884V45H474.884V46ZM474.884 51.838H473.884V52.838H474.884V51.838ZM477.81 51.838V52.838H478.81V51.838H477.81ZM477.81 46V45H476.81V46H477.81ZM479.028 46H480.028V45H479.028V46ZM479.028 52.838H479.994V50.838H479.028V52.838ZM478.994 51.838V54.876H480.994V51.838H478.994ZM479.994 53.876H478.79V55.876H479.994V53.876ZM479.79 54.876V53H477.79V54.876H479.79ZM478.79 52H469.508V54H478.79V52ZM470.508 53V46H468.508V53H470.508ZM469.508 47H470.726V45H469.508V47ZM469.726 46V51.838H471.726V46H469.726ZM470.726 52.838H473.666V50.838H470.726V52.838ZM474.666 51.838V46H472.666V51.838H474.666ZM473.666 47H474.884V45H473.666V47ZM473.884 46V51.838H475.884V46H473.884ZM474.884 52.838H477.81V50.838H474.884V52.838ZM478.81 51.838V46H476.81V51.838H478.81ZM477.81 47H479.028V45H477.81V47ZM478.028 46V51.838H480.028V46H478.028ZM481.887 50.06V49.06H480.675L480.906 50.2505L481.887 50.06ZM482.741 51.516L482.131 52.308L482.139 52.314L482.741 51.516ZM486.437 51.012L486.931 50.1423L486.092 49.6663L485.586 50.4873L486.437 51.012ZM487.473 51.6L488.313 52.1426L488.888 51.2531L487.967 50.7303L487.473 51.6ZM481.677 52.146L480.965 52.8484L480.975 52.8578L481.677 52.146ZM481.663 46.868L480.947 46.1705L480.947 46.1705L481.663 46.868ZM486.815 46.91L486.066 47.5726L486.075 47.5827L486.815 46.91ZM487.753 50.06V51.06H488.615L488.742 50.2083L487.753 50.06ZM482.685 47.526L483.332 48.2888L483.342 48.2806L482.685 47.526ZM481.887 48.996L480.901 48.8316L480.707 49.996H481.887V48.996ZM486.563 48.996V49.996H487.73L487.552 48.8429L486.563 48.996ZM485.779 47.484L486.414 46.7116L486.414 46.7116L485.779 47.484ZM480.906 50.2505C481.067 51.0825 481.465 51.7951 482.131 52.308L483.352 50.724C483.121 50.5462 482.95 50.2881 482.869 49.8695L480.906 50.2505ZM482.139 52.314C482.796 52.8103 483.577 53.034 484.421 53.034V51.034C483.941 51.034 483.601 50.9124 483.344 50.718L482.139 52.314ZM484.421 53.034C485.629 53.034 486.656 52.5636 487.289 51.5367L485.586 50.4873C485.379 50.8231 485.062 51.034 484.421 51.034V53.034ZM485.944 51.8817L486.98 52.4697L487.967 50.7303L486.931 50.1423L485.944 51.8817ZM486.633 51.0574C486.156 51.7968 485.463 52.182 484.393 52.182V54.182C486.067 54.182 487.428 53.5125 488.313 52.1426L486.633 51.0574ZM484.393 52.182C483.509 52.182 482.868 51.9157 482.38 51.4342L480.975 52.8578C481.887 53.7576 483.057 54.182 484.393 54.182V52.182ZM482.389 51.4437C481.899 50.947 481.641 50.3248 481.641 49.5H479.641C479.641 50.8031 480.074 51.945 480.966 52.8483L482.389 51.4437ZM481.641 49.5C481.641 48.683 481.896 48.063 482.38 47.5655L480.947 46.1705C480.068 47.073 479.641 48.2076 479.641 49.5H481.641ZM482.38 47.5655C482.852 47.0808 483.464 46.818 484.309 46.818V44.818C482.989 44.818 481.838 45.2552 480.947 46.1705L482.38 47.5655ZM484.309 46.818C485.068 46.818 485.624 47.0725 486.066 47.5726L487.564 46.2474C486.719 45.2915 485.604 44.818 484.309 44.818V46.818ZM486.075 47.5827C486.553 48.1079 486.795 48.7325 486.795 49.514H488.795C488.795 48.2609 488.385 47.1494 487.555 46.2373L486.075 47.5827ZM486.795 49.514C486.795 49.6386 486.786 49.771 486.764 49.9117L488.742 50.2083C488.777 49.9757 488.795 49.744 488.795 49.514H486.795ZM487.753 49.06H481.887V51.06H487.753V49.06ZM484.309 45.966C483.453 45.966 482.667 46.2165 482.029 46.7714L483.342 48.2806C483.562 48.0888 483.859 47.966 484.309 47.966V45.966ZM482.039 46.7632C481.409 47.2972 481.038 48.0096 480.901 48.8316L482.874 49.1604C482.942 48.7504 483.103 48.4828 483.332 48.2888L482.039 46.7632ZM481.887 49.996H486.563V47.996H481.887V49.996ZM487.552 48.8429C487.42 47.9965 487.066 47.2472 486.414 46.7116L485.144 48.2564C485.333 48.4115 485.501 48.6702 485.575 49.1491L487.552 48.8429ZM486.414 46.7116C485.81 46.2144 485.094 45.966 484.309 45.966V47.966C484.645 47.966 484.909 48.0629 485.144 48.2564L486.414 46.7116ZM494.039 46V45H493.039V46H494.039ZM495.257 46H496.257V45H495.257V46ZM495.257 53V54H496.257V53H495.257ZM494.039 53H493.039V54H494.039V53ZM494.039 50.074H495.039V49.074H494.039V50.074ZM490.413 50.074V49.074H489.413V50.074H490.413ZM490.413 53V54H491.413V53H490.413ZM489.195 53H488.195V54H489.195V53ZM489.195 46V45H488.195V46H489.195ZM490.413 46H491.413V45H490.413V46ZM490.413 48.912H489.413V49.912H490.413V48.912ZM494.039 48.912V49.912H495.039V48.912H494.039ZM494.039 47H495.257V45H494.039V47ZM494.257 46V53H496.257V46H494.257ZM495.257 52H494.039V54H495.257V52ZM495.039 53V50.074H493.039V53H495.039ZM494.039 49.074H490.413V51.074H494.039V49.074ZM489.413 50.074V53H491.413V50.074H489.413ZM490.413 52H489.195V54H490.413V52ZM490.195 53V46H488.195V53H490.195ZM489.195 47H490.413V45H489.195V47ZM489.413 46V48.912H491.413V46H489.413ZM490.413 49.912H494.039V47.912H490.413V49.912ZM495.039 48.912V46H493.039V48.912H495.039ZM501.802 49.15L501.125 49.8865L501.133 49.8937L501.141 49.9007L501.802 49.15ZM501.802 52.384L502.47 53.128L502.47 53.1273L501.802 52.384ZM497.111 53H496.111V54H497.111V53ZM497.111 46V45H496.111V46H497.111ZM498.33 46H499.33V45H498.33V46ZM498.33 48.52H497.33V49.52H498.33V48.52ZM503.412 46V45H502.412V46H503.412ZM504.63 46H505.63V45H504.63V46ZM504.63 53V54H505.63V53H504.63ZM503.412 53H502.412V54H503.412V53ZM500.934 51.572L501.577 52.3377L501.579 52.3354L500.934 51.572ZM500.934 49.948L500.273 50.6987L500.28 50.7051L500.288 50.7114L500.934 49.948ZM498.33 49.64V48.64H497.33V49.64H498.33ZM498.33 51.866H497.33V52.866H498.33V51.866ZM500.066 49.52C500.549 49.52 500.876 49.6579 501.125 49.8865L502.478 48.4135C501.812 47.8021 500.982 47.52 500.066 47.52V49.52ZM501.141 49.9007C501.376 50.1078 501.502 50.3632 501.502 50.76H503.502C503.502 49.8314 503.16 49.0135 502.462 48.3993L501.141 49.9007ZM501.502 50.76C501.502 51.157 501.376 51.4219 501.133 51.6407L502.47 53.1273C503.161 52.5061 503.502 51.6884 503.502 50.76H501.502ZM501.133 51.64C500.885 51.8629 500.555 52 500.066 52V54C500.976 54 501.803 53.7265 502.47 53.128L501.133 51.64ZM500.066 52H497.111V54H500.066V52ZM498.111 53V46H496.111V53H498.111ZM497.111 47H498.33V45H497.111V47ZM497.33 46V48.52H499.33V46H497.33ZM498.33 49.52H500.066V47.52H498.33V49.52ZM503.412 47H504.63V45H503.412V47ZM503.63 46V53H505.63V46H503.63ZM504.63 52H503.412V54H504.63V52ZM504.412 53V46H502.412V53H504.412ZM500.066 52.866C500.613 52.866 501.139 52.7052 501.577 52.3377L500.29 50.8063C500.261 50.8308 500.209 50.866 500.066 50.866V52.866ZM501.579 52.3354C502.061 51.928 502.298 51.371 502.298 50.76H500.298C500.298 50.7837 500.295 50.7976 500.294 50.8036C500.293 50.8093 500.292 50.8094 500.294 50.8059C500.296 50.8024 500.297 50.7995 500.298 50.7983C500.299 50.7973 500.297 50.801 500.288 50.8086L501.579 52.3354ZM502.298 50.76C502.298 50.149 502.061 49.592 501.579 49.1846L500.288 50.7114C500.297 50.719 500.299 50.7227 500.298 50.7217C500.297 50.7205 500.296 50.7176 500.294 50.7141C500.292 50.7106 500.293 50.7107 500.294 50.7164C500.295 50.7224 500.298 50.7363 500.298 50.76H502.298ZM501.594 49.1973C501.158 48.8131 500.625 48.64 500.066 48.64V50.64C500.197 50.64 500.243 50.6722 500.273 50.6987L501.594 49.1973ZM500.066 48.64H498.33V50.64H500.066V48.64ZM497.33 49.64V51.866H499.33V49.64H497.33ZM498.33 52.866H500.066V50.866H498.33V52.866ZM506.616 52.888L507.324 52.1809L507.324 52.1809L506.616 52.888ZM506.616 51.6L505.909 50.8929L506.616 51.6ZM507.904 51.6L507.178 52.2877L507.188 52.2976L507.197 52.3071L507.904 51.6ZM507.904 52.888L507.197 52.1809L507.188 52.1904L507.178 52.2003L507.904 52.888ZM507.26 52.154C507.256 52.154 507.258 52.1537 507.265 52.155C507.272 52.1563 507.282 52.1588 507.292 52.1632C507.303 52.1676 507.312 52.1726 507.318 52.1769C507.324 52.1811 507.326 52.1832 507.324 52.1809L505.909 53.5951C506.275 53.961 506.745 54.154 507.26 54.154V52.154ZM507.324 52.1809C507.321 52.1786 507.323 52.1803 507.328 52.1865C507.332 52.1928 507.337 52.2016 507.341 52.2122C507.346 52.2229 507.348 52.2323 507.349 52.2393C507.351 52.2462 507.35 52.2482 507.35 52.244H505.35C505.35 52.7598 505.543 53.2292 505.909 53.5951L507.324 52.1809ZM507.35 52.244C507.35 52.2398 507.351 52.2418 507.349 52.2487C507.348 52.2557 507.346 52.2651 507.341 52.2758C507.337 52.2864 507.332 52.2952 507.328 52.3015C507.323 52.3077 507.321 52.3094 507.324 52.3071L505.909 50.8929C505.543 51.2588 505.35 51.7282 505.35 52.244H507.35ZM507.324 52.3071C507.326 52.3048 507.324 52.3069 507.318 52.3111C507.312 52.3154 507.303 52.3204 507.292 52.3248C507.282 52.3292 507.272 52.3317 507.265 52.333C507.258 52.3343 507.256 52.334 507.26 52.334V50.334C506.745 50.334 506.275 50.527 505.909 50.8929L507.324 52.3071ZM507.26 52.334C507.276 52.334 507.264 52.3363 507.236 52.3248C507.223 52.3194 507.21 52.3124 507.199 52.3047C507.188 52.2971 507.181 52.2907 507.178 52.2877L508.63 50.9123C508.259 50.5206 507.775 50.334 507.26 50.334V52.334ZM507.197 52.3071C507.2 52.3094 507.198 52.3077 507.193 52.3015C507.189 52.2952 507.184 52.2864 507.18 52.2758C507.175 52.2651 507.173 52.2557 507.171 52.2487C507.17 52.2418 507.17 52.2398 507.17 52.244H509.17C509.17 51.7282 508.977 51.2588 508.612 50.8929L507.197 52.3071ZM507.17 52.244C507.17 52.2482 507.17 52.2462 507.171 52.2393C507.173 52.2323 507.175 52.2229 507.18 52.2122C507.184 52.2016 507.189 52.1928 507.193 52.1865C507.198 52.1803 507.2 52.1786 507.197 52.1809L508.612 53.5951C508.977 53.2292 509.17 52.7598 509.17 52.244H507.17ZM507.178 52.2003C507.181 52.1973 507.188 52.1909 507.199 52.1833C507.21 52.1756 507.223 52.1686 507.236 52.1632C507.264 52.1517 507.276 52.154 507.26 52.154V54.154C507.775 54.154 508.259 53.9674 508.63 53.5757L507.178 52.2003Z" fill="black"/>
</g>
</svg>
